<?xml version="1.0" encoding="utf-8"?>
<!-- Generator: Adobe Illustrator 21.0.2, SVG Export Plug-In . SVG Version: 6.00 Build 0)  -->
<svg version="1.1" id="Layer_1" xmlns="http://www.w3.org/2000/svg" xmlns:xlink="http://www.w3.org/1999/xlink" x="0px" y="0px"
	 viewBox="0 0 40 40" style="enable-background:new 0 0 40 40;" xml:space="preserve">
<style type="text/css">
	.st0{fill:#005590;}
</style>
<g>
	<g>
		<path class="st0" d="M20,18.8c-0.3,0-0.6,0.3-0.6,0.6v1.2c0,0.3,0.3,0.6,0.6,0.6s0.6-0.3,0.6-0.6v-1.2
			C20.6,19.1,20.3,18.8,20,18.8z"/>
	</g>
</g>
<g>
	<g>
		<path class="st0" d="M20.8,19.2c-0.2-0.2-0.6-0.2-0.8,0L19.2,20c-0.2,0.2-0.2,0.6,0,0.8c0.1,0.1,0.3,0.2,0.4,0.2
			c0.2,0,0.3-0.1,0.4-0.2l0.8-0.8C21.1,19.8,21.1,19.4,20.8,19.2z"/>
	</g>
</g>
<g>
	<g>
		<path class="st0" d="M20.6,19.4h-1.2c-0.3,0-0.6,0.3-0.6,0.6s0.3,0.6,0.6,0.6h1.2c0.3,0,0.6-0.3,0.6-0.6
			C21.2,19.7,20.9,19.4,20.6,19.4z"/>
	</g>
</g>
<g>
	<g>
		<path class="st0" d="M20.8,20L20,19.2c-0.2-0.2-0.6-0.2-0.8,0c-0.2,0.2-0.2,0.6,0,0.8l0.8,0.8c0.1,0.1,0.3,0.2,0.4,0.2
			c0.2,0,0.3-0.1,0.4-0.2C21.1,20.6,21.1,20.2,20.8,20z"/>
	</g>
</g>
<g>
	<g>
		<path class="st0" d="M20,18.8c-0.3,0-0.6,0.3-0.6,0.6v1.2c0,0.3,0.3,0.6,0.6,0.6s0.6-0.3,0.6-0.6v-1.2
			C20.6,19.1,20.3,18.8,20,18.8z"/>
	</g>
</g>
<g>
	<g>
		<path class="st0" d="M20.8,19.2c-0.2-0.2-0.6-0.2-0.8,0L19.2,20c-0.2,0.2-0.2,0.6,0,0.8c0.1,0.1,0.3,0.2,0.4,0.2
			c0.2,0,0.3-0.1,0.4-0.2l0.8-0.8C21.1,19.8,21.1,19.4,20.8,19.2z"/>
	</g>
</g>
<g>
	<g>
		<path class="st0" d="M20.6,19.4h-1.2c-0.3,0-0.6,0.3-0.6,0.6s0.3,0.6,0.6,0.6h1.2c0.3,0,0.6-0.3,0.6-0.6
			C21.2,19.7,20.9,19.4,20.6,19.4z"/>
	</g>
</g>
<g>
	<g>
		<path class="st0" d="M20.8,20L20,19.2c-0.2-0.2-0.6-0.2-0.8,0c-0.2,0.2-0.2,0.6,0,0.8l0.8,0.8c0.1,0.1,0.3,0.2,0.4,0.2
			c0.2,0,0.3-0.1,0.4-0.2C21.1,20.6,21.1,20.2,20.8,20z"/>
	</g>
</g>
<g>
	<g>
		<path class="st0" d="M20,0C9,0,0,9,0,20s9,20,20,20s20-9,20-20S31,0,20,0z M20,37.5c-9.7,0-17.5-7.9-17.5-17.5S10.3,2.5,20,2.5
			S37.5,10.3,37.5,20S29.7,37.5,20,37.5z"/>
		<circle class="st0" cx="20.3" cy="12" r="2.1"/>
		<path class="st0" d="M19.8,17.4c-0.7,0-1.2,0.6-1.2,1.2v10.5c0,0.7,0.6,1.2,1.2,1.2c0.7,0,1.2-0.6,1.2-1.2V18.7
			C21,18,20.5,17.4,19.8,17.4z"/>
	</g>
</g>
</svg>
