<?xml version="1.0" encoding="utf-8"?>
<!-- Generator: Adobe Illustrator 21.0.2, SVG Export Plug-In . SVG Version: 6.00 Build 0)  -->
<svg version="1.1" id="Icons" xmlns="http://www.w3.org/2000/svg" xmlns:xlink="http://www.w3.org/1999/xlink" x="0px" y="0px"
	 viewBox="0 0 32 32" style="enable-background:new 0 0 32 32;" xml:space="preserve">
<style type="text/css">
	.st0{fill:#005590;}
</style>
<g>
	<g>
		<path class="st0" d="M32,28.2c0,0.4-0.4,0.8-0.8,0.8H2.1c-0.4,0-0.8-0.4-0.8-0.8c0-0.4,0.4-0.8,0.8-0.8h29.1
			C31.6,27.4,32,27.7,32,28.2L32,28.2z M9.2,6.4l2.9,2l7.2-2.9l-7.5-1.4c-0.1,0-0.3,0-0.4,0L9.4,5.1C9.1,5.2,8.9,5.4,8.9,5.7
			C8.9,6,9,6.3,9.2,6.4L9.2,6.4z M30.2,4.3c-0.4-0.7-1.1-1.2-2-1.2c-0.3,0-0.6,0.1-0.8,0.2l-6.6,2.6h0L12.9,9l0,0l-8.1,3.2l-1.9-1
			c-0.8-0.4-1.7-0.4-2.5-0.1c-0.2,0.1-0.4,0.3-0.5,0.5c-0.1,0.2,0,0.5,0.2,0.7l2.9,3.4L2.4,18c-0.1,0.3,0,0.6,0.2,0.8
			c0.2,0.2,0.5,0.3,0.8,0.1l1-0.4c0.1-0.1,0.2-0.1,0.3-0.2l1.6-2l8-3.2l0.3,7.9c0,0.3,0.1,0.5,0.4,0.6c0.1,0.1,0.3,0.1,0.4,0.1
			c0.1,0,0.2,0,0.3-0.1l2.2-0.9c0.2-0.1,0.4-0.2,0.4-0.4l4.1-10.5l6.4-2.5c0.6-0.2,1-0.7,1.2-1.2C30.5,5.4,30.5,4.8,30.2,4.3
			L30.2,4.3z M30.2,4.3"/>
	</g>
</g>
</svg>
