<?xml version="1.0" encoding="utf-8"?>
<!-- Generator: Adobe Illustrator 21.0.2, SVG Export Plug-In . SVG Version: 6.00 Build 0)  -->
<svg version="1.1" id="Icons" xmlns="http://www.w3.org/2000/svg" xmlns:xlink="http://www.w3.org/1999/xlink" x="0px" y="0px"
	 viewBox="0 0 32 32" style="enable-background:new 0 0 32 32;" xml:space="preserve">
<style type="text/css">
	.st0{fill:#005590;}
</style>
<g>
	<g>
		<path class="st0" d="M32.1,28.2c0,0.4-0.4,0.8-0.8,0.8H2.2c-0.4,0-0.8-0.4-0.8-0.8s0.4-0.8,0.8-0.8h29.1
			C31.7,27.4,32.1,27.7,32.1,28.2L32.1,28.2z M15.2,3.9l0.6,3.5l7.1,3l-4.3-6.3c-0.1-0.1-0.2-0.2-0.3-0.3l-2.1-0.7
			C16,3,15.7,3,15.5,3.2C15.3,3.4,15.2,3.7,15.2,3.9L15.2,3.9z M31.6,17.3c0.2-0.8,0.1-1.6-0.6-2.3c-0.2-0.2-0.5-0.4-0.7-0.4
			l-6.5-2.8l0,0L16,8.4l0,0L8,4.9L7.4,2.9C7.1,2,6.5,1.4,5.7,1C5.5,0.9,5.2,0.9,5,1S4.6,1.4,4.6,1.6L4.3,6.1L2.2,7.3
			C2,7.4,1.8,7.7,1.8,8c0,0.3,0.1,0.6,0.5,0.6l1,0.4c0.1,0,0.2,0.1,0.4,0.1l2.5-0.3l7.9,3.4l-5.4,5.8c-0.2,0.2-0.3,0.4-0.1,0.7
			c0,0.1,0.1,0.3,0.2,0.4c0.1,0.1,0.1,0.1,0.3,0.1l2.2,0.9c0.2,0.1,0.4,0.1,0.6,0l10.3-4.5l6.3,2.8c0.6,0.3,1.2,0.2,1.7,0
			C31,18.3,31.4,17.8,31.6,17.3L31.6,17.3z"/>
	</g>
</g>
</svg>
