<?xml version="1.0" encoding="utf-8"?>
<!-- Generator: Adobe Illustrator 21.0.2, SVG Export Plug-In . SVG Version: 6.00 Build 0)  -->
<svg version="1.1" id="Layer_1" xmlns="http://www.w3.org/2000/svg" xmlns:xlink="http://www.w3.org/1999/xlink" x="0px" y="0px"
	 viewBox="0 0 40 40" style="enable-background:new 0 0 40 40;" xml:space="preserve">
<style type="text/css">
	.st0{fill:#B2CCDD;}
</style>
<g>
	<g id="flights">
		<g>
			<path class="st0" d="M27.5,40L20,37.8L12.5,40v-4.4l3.8-2.9v-8.9L1,28.7v-5.4l15.2-9.5v-10c0-1,0.4-1.9,1.1-2.6
				C18.1,0.4,19,0,20,0c1,0,1.9,0.4,2.6,1.1c0.7,0.7,1.1,1.6,1.1,2.6v10L39,23.2v5.4l-15.2-4.8v8.9l3.8,2.9
				C27.5,35.6,27.5,40,27.5,40z M20,36.1l5.8,1.6v-1.3L22,33.5v-12l15.2,4.8v-2.2L22,14.6V3.7c0-1-1-2-2-2c-1,0-2,1-2,2v11L2.8,24.2
				v2.2L18,21.6v12l-3.8,2.9v1.3L20,36.1z"/>
		</g>
	</g>
</g>
</svg>
