<?xml version="1.0" encoding="utf-8"?>
<!-- Generator: Adobe Illustrator 21.0.2, SVG Export Plug-In . SVG Version: 6.00 Build 0)  -->
<svg version="1.1" id="Layer_1" xmlns="http://www.w3.org/2000/svg" xmlns:xlink="http://www.w3.org/1999/xlink" x="0px" y="0px"
	 viewBox="0 0 40 40" style="enable-background:new 0 0 40 40;" xml:space="preserve">
<style type="text/css">
	.st0{fill:#B2CCDD;}
</style>
<g>
	<g>
		<path class="st0" d="M37.5,8.1h-7.3V6.6c0-3.7-3-6.6-6.6-6.6c-1.3,0-2.5,0.4-3.6,1c-1-0.7-2.3-1-3.6-1c-3.7,0-6.6,3-6.6,6.6v1.5
			H2.5L0,40h40L37.5,8.1z M23.6,2.4c2.3,0,4.2,1.9,4.2,4.2v1.5H23V6.6c0-1.4-0.5-2.8-1.2-3.9C22.3,2.5,22.9,2.4,23.6,2.4z M19.3,6.6
			c0-0.8,0.3-1.6,0.7-2.3c0.4,0.7,0.7,1.5,0.7,2.3v1.5h-1.4L19.3,6.6L19.3,6.6z M12.2,6.6c0-2.3,1.9-4.2,4.2-4.2
			c0.6,0,1.2,0.1,1.8,0.4C17.4,3.9,17,5.2,17,6.7v1.5h-4.8C12.2,8.2,12.2,6.6,12.2,6.6z M10.5,16v3.8H8V16l1.2-0.8L10.5,16z
			 M25.9,37.6H2.6l2.1-27.1h3.4v2.6l-2.4,1.6v7.4h7.2v-7.4l-2.4-1.6v-2.6H28L25.9,37.6z M30.4,10.5h1.3v22.9l-3.3,2.7L30.4,10.5z
			 M30.3,37.6l2.5-2.1l2.5,2.1H30.3z M34,33.4V10.5h1.3l2,25.6L34,33.4z"/>
	</g>
</g>
</svg>
