<?xml version="1.0" encoding="utf-8"?>
<!-- Generator: Adobe Illustrator 21.0.2, SVG Export Plug-In . SVG Version: 6.00 Build 0)  -->
<svg version="1.1" id="Icons" xmlns="http://www.w3.org/2000/svg" xmlns:xlink="http://www.w3.org/1999/xlink" x="0px" y="0px"
	 viewBox="0 0 32 32" style="enable-background:new 0 0 32 32;" xml:space="preserve">
<style type="text/css">
	.st0{fill:#FFFFFF;stroke:#FFFFFF;stroke-miterlimit:10;}
</style>
<path class="st0" d="M30.6,9.4C30,9,29.3,9,28.6,9.3l-4.2,1.9v-0.1c0-1-0.8-1.8-1.8-1.8H20V6.6C20,5.7,19.3,5,18.4,5H1
	C0.7,5,0.5,5.2,0.5,5.5S0.7,6.1,1,6.1h17.4c0.3,0,0.5,0.2,0.5,0.5v2.7H2.3c-1,0-1.8,0.8-1.8,1.8V25c0,1,0.8,1.8,1.8,1.8h20.3
	c1,0,1.8-0.8,1.8-1.8v-0.1l4.2,1.9c0.3,0.1,0.6,0.2,0.9,0.2c0.4,0,0.8-0.1,1.1-0.3c0.6-0.4,0.9-1,0.9-1.7V11.2
	C31.5,10.5,31.1,9.8,30.6,9.4z M23.3,25c0,0.4-0.3,0.7-0.7,0.7H2.3c-0.4,0-0.7-0.3-0.7-0.7V11.2c0-0.4,0.3-0.7,0.7-0.7h20.3
	c0.4,0,0.7,0.3,0.7,0.7v0.6v12.7V25z M30.4,24.9c0,0.3-0.2,0.6-0.4,0.8c-0.3,0.2-0.6,0.2-0.9,0.1l-4.6-2.1V12.4l4.6-2.1
	c0.3-0.1,0.6-0.1,0.9,0.1c0.3,0.2,0.4,0.5,0.4,0.8V24.9z"/>
</svg>
