<?xml version="1.0" encoding="utf-8"?>
<!-- Generator: Adobe Illustrator 21.0.2, SVG Export Plug-In . SVG Version: 6.00 Build 0)  -->
<svg version="1.1" id="Icons" xmlns="http://www.w3.org/2000/svg" xmlns:xlink="http://www.w3.org/1999/xlink" x="0px" y="0px"
	 viewBox="0 0 32 32" style="enable-background:new 0 0 32 32;" xml:space="preserve">
<style type="text/css">
	.st0{fill:#005590;}
</style>
<g>
	<g id="flights">
		<path class="st0" d="M17,9.6c0-0.6-0.5-1-1.1-1h-3.8L8.6,3H7.2l1.8,5.6H5.1l-1-1.4H3l0.7,2.4L3,12.1h1.1l1-1.4h3.8l-1.8,5.6h1.4
			l3.5-5.6h3.8C16.5,10.7,17,10.2,17,9.6z"/>
	</g>
</g>
<g>
	<g id="flights_1_">
		<path class="st0" d="M29,22.4c0-0.6-0.5-1.1-1-1.1h-3.9l-3.5-5.6h-1.4l1.8,5.6h-3.9L16,19.9h-1l0.7,2.5L15,24.8h1l1.1-1.4H21
			L19.2,29h1.4l3.5-5.6H28C28.5,23.4,29,22.9,29,22.4z"/>
	</g>
</g>
</svg>
