<?xml version="1.0" encoding="utf-8"?>
<!-- Generator: Adobe Illustrator 21.0.2, SVG Export Plug-In . SVG Version: 6.00 Build 0)  -->
<svg version="1.1" id="Icons" xmlns="http://www.w3.org/2000/svg" xmlns:xlink="http://www.w3.org/1999/xlink" x="0px" y="0px"
	 viewBox="0 0 32 32" style="enable-background:new 0 0 32 32;" xml:space="preserve">
<style type="text/css">
	.st0{fill:#005590;}
</style>
<g>
	<path class="st0" d="M30.6,11.7c-0.1,0-0.3,0-0.4,0.1l-1.6,0.4l-1.6-4c-0.5-1.2-1.9-2.2-3.2-2.2h-1.1V2.7c0-0.6-0.5-1.1-1.1-1.1
		H10.4c-0.6,0-1.1,0.5-1.1,1.1v3.3H8.2C6.9,6.1,5.5,7,5,8.2l-1.6,4l-1.5-0.4c-0.1,0-0.3-0.1-0.4-0.1c-0.8,0-1.4,0.6-1.4,1.4V14
		c0,1,0.8,1.8,1.8,1.8h0.1l-0.2,0.6c-0.5,1.1-0.8,3-0.8,4.2v8c0,1,0.8,1.8,1.8,1.8h2.1c1,0,1.8-0.8,1.8-1.8v-2h19.1v2
		c0,1,0.8,1.8,1.8,1.8h2.1c1,0,1.8-0.8,1.8-1.8v-8c0-1.2-0.4-3.1-0.8-4.2l-0.2-0.6h0.1c1,0,1.8-0.8,1.8-1.8v-0.9
		C32,12.3,31.4,11.7,30.6,11.7L30.6,11.7z M20.2,3.1C20.2,3.1,20.3,3.1,20.2,3.1l0.9,0c0,0,0,0,0,0V6c0,0,0,0,0,0h-0.9c0,0,0,0,0,0
		V3.1z M14.4,3.1h1c0,0,0,0,0.1,0L16.6,6l1.1-1.3c0,0,0,0,0-0.1l-1-1.5c0,0,0,0,0,0h0.9c0,0,0.1,0,0.1,0l0.5,0.9c0,0,0,0,0,0
		l0.5-0.9c0,0,0,0,0.1,0h0.9c0,0,0,0,0,0l-1,1.5c0,0,0,0.1,0,0.1L19.8,6c0,0,0,0,0,0h-1c0,0,0,0,0,0l-0.6-1c0,0,0,0,0,0l-0.6,1
		c0,0,0,0,0,0h-1.8c0,0,0,0,0,0l-0.2-0.6c0,0,0,0-0.1,0h-1.1c0,0,0,0-0.1,0L14.1,6c0,0,0,0,0,0h-0.9c0,0,0,0,0,0L14.4,3.1
		C14.4,3.1,14.4,3.1,14.4,3.1L14.4,3.1z M11.5,6V3.7c0,0,0,0,0,0h-1c0,0,0,0,0,0V3.1c0,0,0,0,0,0h2.9c0,0,0,0,0,0v0.5c0,0,0,0,0,0
		h-1c0,0,0,0,0,0V6c0,0,0,0,0,0L11.5,6C11.5,6.1,11.5,6,11.5,6L11.5,6z M4.6,14.8l2.5-6.1C7.4,8,8.3,7.4,9,7.4H23
		c0.8,0,1.7,0.6,1.9,1.3l2.5,6.1c0.3,0.7-0.1,1.3-0.9,1.3H5.5C4.7,16.1,4.3,15.5,4.6,14.8L4.6,14.8z M10.2,22.6
		c0,0.4-0.3,0.7-0.7,0.7H4.8C4.4,23.3,4,23,4,22.6v-2.3c0-0.4,0.3-0.7,0.7-0.7h4.8c0.4,0,0.7,0.3,0.7,0.7V22.6z M27.9,22.6
		c0,0.4-0.3,0.7-0.7,0.7h-4.8c-0.4,0-0.7-0.3-0.7-0.7v-2.3c0-0.4,0.3-0.7,0.7-0.7h4.8c0.4,0,0.7,0.3,0.7,0.7V22.6z M27.9,22.6"/>
	<path class="st0" d="M15.2,4.8C15.3,4.8,15.3,4.8,15.2,4.8l-0.3-0.8c0,0,0,0,0,0l-0.4,0.8c0,0,0,0,0,0H15.2z M15.2,4.8"/>
</g>
</svg>
