<?xml version="1.0" encoding="utf-8"?>
<!-- Generator: Adobe Illustrator 21.0.2, SVG Export Plug-In . SVG Version: 6.00 Build 0)  -->
<svg version="1.1" id="Icons" xmlns="http://www.w3.org/2000/svg" xmlns:xlink="http://www.w3.org/1999/xlink" x="0px" y="0px"
	 viewBox="0 0 32 32" style="enable-background:new 0 0 32 32;" xml:space="preserve">
<style type="text/css">
	.st0{fill:#FFFFFF;}
</style>
<g>
	<g>
		<path class="st0" d="M2.6,28.5c-0.4,0-0.8-0.3-0.9-0.6c-0.2-0.4,0-0.8,0.3-1.1c1-0.9,1.6-1.9,1.7-3.1H1.8C0.6,23.6,0,22.8,0,22
			v-9.7c0-1,0.8-1.8,1.8-1.8h16.4c1,0,1.8,0.8,1.8,1.8V22c0,0.8-0.6,1.6-1.8,1.6H9.4c-0.6,2-2.2,3.7-4.2,4.5
			C4.2,28.4,3.3,28.5,2.6,28.5C2.7,28.5,2.6,28.5,2.6,28.5z M2,21.6h2.7c0.5,0,1,0.4,1,0.9c0.1,1.2-0.1,2.3-0.6,3.4
			c1.3-0.7,2.2-2,2.5-3.5c0.1-0.5,0.5-0.8,1-0.8H18v-9.1H2V21.6z M18.3,21.6L18.3,21.6L18.3,21.6z M1.7,21.6L1.7,21.6L1.7,21.6z"/>
	</g>
	<g>
		<path class="st0" d="M29.4,21.5C29.4,21.5,29.3,21.5,29.4,21.5c-0.6,0-1.6-0.1-2.5-0.4c-2.1-0.8-3.6-2.4-4.2-4.5H19
			c-0.6,0-1-0.4-1-1s0.4-1,1-1h4.4c0.5,0,0.9,0.3,1,0.8c0.3,1.5,1.2,2.7,2.5,3.5c-0.5-1-0.7-2.2-0.6-3.4c0-0.5,0.5-0.9,1-0.9H30V5.5
			H14v6c0,0.6-0.4,1-1,1s-1-0.4-1-1V5.3c0-1,0.8-1.8,1.8-1.8h16.4c1,0,1.8,0.8,1.8,1.8V15c0,0.8-0.6,1.6-1.8,1.6h-1.8
			c0.1,1.2,0.7,2.3,1.7,3.1c0.3,0.3,0.4,0.7,0.3,1.1C30.1,21.2,29.8,21.5,29.4,21.5z M30.3,14.6L30.3,14.6L30.3,14.6z"/>
	</g>
	<g>
		<g>
			<path class="st0" d="M6,18.5c-0.6,0-1-0.4-1-1s0.4-1,1-1s1,0.4,1,1S6.6,18.5,6,18.5z M6,17.5L6,17.5h0.5H6z"/>
		</g>
		<g>
			<path class="st0" d="M10,18.5c-0.6,0-1-0.4-1-1s0.4-1,1-1s1,0.4,1,1S10.6,18.5,10,18.5z M10,17.5L10,17.5h0.5H10z"/>
		</g>
		<g>
			<path class="st0" d="M14,18.5c-0.6,0-1-0.4-1-1s0.4-1,1-1s1,0.4,1,1S14.6,18.5,14,18.5z M14,17.5L14,17.5h0.5H14z"/>
		</g>
	</g>
</g>
</svg>
