<?xml version="1.0" encoding="utf-8"?>
<!-- Generator: Adobe Illustrator 21.0.2, SVG Export Plug-In . SVG Version: 6.00 Build 0)  -->
<svg version="1.1" id="Layer_1" xmlns="http://www.w3.org/2000/svg" xmlns:xlink="http://www.w3.org/1999/xlink" x="0px" y="0px"
	 viewBox="0 0 40 40" style="enable-background:new 0 0 40 40;" xml:space="preserve">
<style type="text/css">
	.st0{fill:#B2CCDD;}
</style>
<g>
	<g>
		<g>
			<path class="st0" d="M35,36.9H5c-2.7,0-5-2.2-5-5V14.4c0-2.8,2.3-5,5-5h30c2.8,0,5,2.2,5,5v17.5C40,34.6,37.8,36.9,35,36.9z
				 M5,11.9c-1.4,0-2.5,1.1-2.5,2.5v17.5c0,1.4,1.1,2.5,2.5,2.5h30c1.4,0,2.5-1.1,2.5-2.5V14.4c0-1.4-1.1-2.5-2.5-2.5H5z"/>
		</g>
		<g>
			<path class="st0" d="M11.2,11.8c-0.8,0-1.2-0.5-1.2-1.2V9.4c0-3.5,2.8-6.2,6.2-6.2h7.5c3.5,0,6.2,2.8,6.2,6.2v1.1
				c0,0.8-0.5,1.2-1.2,1.2s-1.2-0.5-1.2-1.2V9.4c0-2.1-1.6-3.8-3.8-3.8h-7.5c-2.1,0-3.8,1.6-3.8,3.8v1.1
				C12.5,11.2,12,11.8,11.2,11.8z"/>
		</g>
	</g>
	<g>
		<rect x="32.5" y="10.6" class="st0" width="1.2" height="5.9"/>
	</g>
	<g>
		<rect x="32.5" y="23.1" class="st0" width="1.2" height="12.4"/>
	</g>
	<g>
		<path class="st0" d="M27.5,25.6c-0.1,0-0.2,0-0.2-0.1c-0.1-0.1-0.3-0.3-0.4-0.4L25,19.2c-0.1-0.4,0.1-0.6,0.4-0.8l8.1-2.8
			c0.1,0,0.4,0,0.5,0c0.1,0.1,0.2,0.3,0.4,0.4l1.9,6c0.1,0.4-0.1,0.6-0.4,0.8l-8.1,2.8C27.6,25.6,27.6,25.6,27.5,25.6z M26.4,19.4
			l1.5,4.8l6.9-2.4L33.2,17L26.4,19.4z"/>
	</g>
	<g>
		<path class="st0" d="M13.8,33.1c-2.8,0-5-1.6-5-3.8s2.2-3.8,5-3.8s5,1.6,5,3.8S16.5,33.1,13.8,33.1z M13.8,26.9
			c-2,0-3.8,1.1-3.8,2.5s1.8,2.5,3.8,2.5s3.8-1.1,3.8-2.5S15.8,26.9,13.8,26.9z"/>
	</g>
	<g>
		<rect x="6.2" y="10.6" class="st0" width="1.2" height="5"/>
	</g>
	<g>
		<rect x="6.2" y="20.6" class="st0" width="1.2" height="14.7"/>
	</g>
	<g>
		<path class="st0" d="M8.8,21.9c-0.8,0-1.6-0.2-2.2-0.8c-1-0.8-1.5-1.8-1.5-3c0-1.1,0.5-2.2,1.5-3c0.6-0.5,1.5-0.8,2.2-0.8
			c2.1,0,3.8,1.6,3.8,3.8S10.9,21.9,8.8,21.9z M8.8,15.6c-0.5,0-1,0.1-1.5,0.5c-0.6,0.5-1,1.2-1,2s0.4,1.5,1,2l0,0
			c0.5,0.4,1,0.5,1.5,0.5c1.4,0,2.5-1.1,2.5-2.5S10.1,15.6,8.8,15.6z"/>
	</g>
</g>
</svg>
