<?xml version="1.0" encoding="utf-8"?>
<!-- Generator: Adobe Illustrator 21.0.2, SVG Export Plug-In . SVG Version: 6.00 Build 0)  -->
<svg version="1.1" id="Layer_1" xmlns="http://www.w3.org/2000/svg" xmlns:xlink="http://www.w3.org/1999/xlink" x="0px" y="0px"
	 viewBox="0 0 40 40" style="enable-background:new 0 0 40 40;" xml:space="preserve">
<style type="text/css">
	.st0{fill:#005590;}
</style>
<g>
	<g>
		<path class="st0" d="M20,18.8c-0.3,0-0.6,0.3-0.6,0.6v1.2c0,0.3,0.3,0.6,0.6,0.6s0.6-0.3,0.6-0.6v-1.2
			C20.6,19.1,20.3,18.8,20,18.8z"/>
	</g>
</g>
<g>
	<g>
		<path class="st0" d="M20.8,19.2c-0.2-0.2-0.6-0.2-0.8,0L19.2,20c-0.2,0.2-0.2,0.6,0,0.8c0.1,0.1,0.3,0.2,0.4,0.2
			c0.2,0,0.3-0.1,0.4-0.2l0.8-0.8C21.1,19.8,21.1,19.4,20.8,19.2z"/>
	</g>
</g>
<g>
	<g>
		<path class="st0" d="M20.6,19.4h-1.2c-0.3,0-0.6,0.3-0.6,0.6s0.3,0.6,0.6,0.6h1.2c0.3,0,0.6-0.3,0.6-0.6
			C21.2,19.7,20.9,19.4,20.6,19.4z"/>
	</g>
</g>
<g>
	<g>
		<path class="st0" d="M20.8,20L20,19.2c-0.2-0.2-0.6-0.2-0.8,0c-0.2,0.2-0.2,0.6,0,0.8l0.8,0.8c0.1,0.1,0.3,0.2,0.4,0.2
			c0.2,0,0.3-0.1,0.4-0.2C21.1,20.6,21.1,20.2,20.8,20z"/>
	</g>
</g>
<g>
	<g>
		<path class="st0" d="M20,18.8c-0.3,0-0.6,0.3-0.6,0.6v1.2c0,0.3,0.3,0.6,0.6,0.6s0.6-0.3,0.6-0.6v-1.2
			C20.6,19.1,20.3,18.8,20,18.8z"/>
	</g>
</g>
<g>
	<g>
		<path class="st0" d="M20.8,19.2c-0.2-0.2-0.6-0.2-0.8,0L19.2,20c-0.2,0.2-0.2,0.6,0,0.8c0.1,0.1,0.3,0.2,0.4,0.2
			c0.2,0,0.3-0.1,0.4-0.2l0.8-0.8C21.1,19.8,21.1,19.4,20.8,19.2z"/>
	</g>
</g>
<g>
	<g>
		<path class="st0" d="M20.6,19.4h-1.2c-0.3,0-0.6,0.3-0.6,0.6s0.3,0.6,0.6,0.6h1.2c0.3,0,0.6-0.3,0.6-0.6
			C21.2,19.7,20.9,19.4,20.6,19.4z"/>
	</g>
</g>
<g>
	<g>
		<path class="st0" d="M20.8,20L20,19.2c-0.2-0.2-0.6-0.2-0.8,0c-0.2,0.2-0.2,0.6,0,0.8l0.8,0.8c0.1,0.1,0.3,0.2,0.4,0.2
			c0.2,0,0.3-0.1,0.4-0.2C21.1,20.6,21.1,20.2,20.8,20z"/>
	</g>
</g>
<g>
	<g>
		<g>
			<path class="st0" d="M6.8,5.2C4.7,5.2,3,6.9,3,8.9c0,2.1,1.7,3.8,3.8,3.8s3.8-1.7,3.8-3.8S8.9,5.2,6.8,5.2z M6.8,11.6
				c-1.4,0-2.6-1.2-2.6-2.6s1.2-2.6,2.6-2.6S9.4,7.6,9.4,9S8.2,11.6,6.8,11.6z"/>
		</g>
	</g>
	<g>
		<g>
			<path class="st0" d="M6.8,2.3c-0.3,0-0.6,0.3-0.6,0.6v1.2c0,0.3,0.3,0.6,0.6,0.6s0.6-0.3,0.6-0.6V2.8C7.4,2.5,7.1,2.3,6.8,2.3z"
				/>
		</g>
	</g>
	<g>
		<g>
			<path class="st0" d="M11.5,4.2c-0.2-0.2-0.6-0.2-0.8,0L9.9,5.1c-0.2,0.2-0.2,0.6,0,0.8C10,6,10.2,6.1,10.3,6.1
				c0.2,0,0.3-0.1,0.4-0.2l0.8-0.8C11.8,4.8,11.8,4.4,11.5,4.2z"/>
		</g>
	</g>
	<g>
		<g>
			<path class="st0" d="M12.9,8.4h-1.2c-0.3,0-0.6,0.3-0.6,0.6s0.3,0.6,0.6,0.6h1.2c0.3,0,0.6-0.3,0.6-0.6
				C13.5,8.6,13.2,8.4,12.9,8.4z"/>
		</g>
	</g>
	<g>
		<g>
			<path class="st0" d="M11.5,12.8L10.7,12c-0.2-0.2-0.6-0.2-0.8,0s-0.2,0.6,0,0.8l0.8,0.8c0.1,0.1,0.3,0.2,0.4,0.2
				c0.2,0,0.3-0.1,0.4-0.2C11.8,13.4,11.8,13.1,11.5,12.8z"/>
		</g>
	</g>
	<g>
		<g>
			<path class="st0" d="M6.8,13.3c-0.3,0-0.6,0.3-0.6,0.6v1.2c0,0.3,0.3,0.6,0.6,0.6s0.6-0.3,0.6-0.6v-1.2
				C7.4,13.6,7.1,13.3,6.8,13.3z"/>
		</g>
	</g>
	<g>
		<g>
			<path class="st0" d="M3.7,12.1c-0.2-0.2-0.6-0.2-0.8,0l-0.8,0.8c-0.2,0.2-0.2,0.6,0,0.8c0.1,0.1,0.3,0.2,0.4,0.2
				c0.2,0,0.3-0.1,0.4-0.2l0.8-0.8C4,12.6,4,12.2,3.7,12.1z"/>
		</g>
	</g>
	<g>
		<g>
			<path class="st0" d="M1.9,8.4H0.7c-0.3,0-0.6,0.2-0.6,0.5s0.3,0.6,0.6,0.6h1.2c0.3,0,0.6-0.3,0.6-0.6S2.2,8.4,1.9,8.4z"/>
		</g>
	</g>
	<g>
		<g>
			<path class="st0" d="M3.7,5.1L2.9,4.2C2.7,4,2.3,4,2.1,4.2C1.8,4.4,1.8,4.8,2.1,5l0.8,0.9C3,6.1,3.2,6.1,3.3,6.1
				c0.2,0,0.3-0.1,0.4-0.2C4,5.8,4,5.3,3.7,5.1z"/>
		</g>
	</g>
	<g>
		<g>
			<path class="st0" d="M39.8,35.7c-1-0.7-2.2-1-3.4-0.9c-1.1-1.5-3.1-2.8-5.9-3.7c-1.7-0.6-3.7-1-5.8-1.3l4.2-10.6
				c0.6,0.5,1.2,1,1.6,1.6c0.1,0.2,0.4,0.3,0.6,0.3c1.4-0.3,2.9-0.1,4.3,0.5c1.4,0.6,2.6,1.5,3.4,2.6c0.1,0.2,0.3,0.2,0.5,0.2h0.1
				c0.2-0.1,0.4-0.3,0.4-0.5s0.5-3.9-0.7-7.9c-0.1-0.3-0.4-0.5-0.7-0.4S37.9,16,38,16.3c0.7,2.4,0.8,4.6,0.7,6
				c-0.8-0.8-1.9-1.5-3-1.9c-1.3-0.5-2.7-0.7-4-0.6v-0.1c0.5-1.4,0.8-2.8,1-4.3c0.2-1.3,0.2-2.7,0-4c-0.1-0.8-0.3-1.5-0.5-2.3l0,0
				c2.1,1.1,3.7,2.8,4.8,5c0.1,0.3,0.5,0.4,0.8,0.3s0.4-0.5,0.3-0.8c-1.5-2.9-3.7-5-6.8-6.2C27.1,5.7,22.7,6.3,18.6,9
				c-3,2-4.8,4.5-4.9,4.6c-0.1,0.2-0.1,0.5,0,0.7s0.4,0.3,0.6,0.3c1.4-0.3,2.9-0.1,4.3,0.5s2.6,1.4,3.4,2.6c0.2,0.2,0.4,0.4,0.7,0.3
				c0.7-0.1,1.5-0.1,2.3,0l-4.7,11.8c-0.1,0-0.2,0-0.4,0c-2.7,0-5.3,0.3-7.7,0.8c-0.3,0.1-0.5,0.4-0.4,0.7s0.4,0.5,0.7,0.4
				c2.3-0.5,4.9-0.8,7.4-0.8c1.2,0,2.5,0.1,3.7,0.2l0,0c2.3,0.2,4.4,0.7,6.3,1.3c2.2,0.8,4,1.7,5,2.8c-0.5,0.2-1,0.4-1.5,0.7
				c-1.5,1-3.4,1-4.9,0c-1.9-1.3-4.3-1.3-6.2,0c-1.5,1-3.4,1-4.9,0c-1.9-1.3-4.3-1.3-6.2,0c-1.5,1-3.4,1-4.9,0
				c-0.5-0.3-1-0.5-1.5-0.7c1-1.1,2.7-2.1,5-2.8c0.3-0.1,0.5-0.4,0.4-0.7s-0.4-0.5-0.7-0.4c-2.8,0.9-4.8,2.2-5.9,3.7
				c-1.2-0.1-2.4,0.3-3.4,0.9c-0.3,0.2-0.3,0.5-0.2,0.8C0.2,37,0.5,37,0.8,36.9C2,36,3.1,35.9,4,36h0.1c0.7,0,1.3,0.2,1.9,0.7
				c1.9,1.3,4.3,1.3,6.2,0c1.5-1,3.4-1,4.9,0c1.9,1.3,4.3,1.3,6.2,0c1.5-1,3.4-1,4.9,0c0.9,0.6,2,1,3.1,1c1.1,0,2.2-0.3,3.1-1
				c0.6-0.4,1.2-0.6,1.9-0.7h0.1c1-0.1,2,0.1,2.9,0.7c0.3,0.2,0.6,0.1,0.8-0.2C40.2,36.2,40.1,35.9,39.8,35.7z M23.7,16.4L23.7,16.4
				c0.6-1.2,1.2-2.3,2-3.3c0.2-0.3,0.1-0.6-0.1-0.8c-0.3-0.2-0.6-0.1-0.8,0.1c-0.6,0.8-1.1,1.7-1.6,2.6c-0.2,0.3-0.3,0.7-0.5,1l0,0
				c-0.9-1-2-1.7-3.3-2.3c-1.1-0.5-2.3-0.7-3.5-0.7c0.8-0.9,2.1-2.2,3.8-3.3c1.7-1.1,3.4-1.8,5.1-2.1c1.7-0.3,3.3-0.2,5,0.2l0,0
				c-0.9,0.5-1.7,1.1-2.5,1.8c-0.3,0.3-0.6,0.5-0.9,0.8c-0.2,0.2-0.2,0.6,0,0.8s0.6,0.2,0.8,0c0.8-0.8,1.6-1.5,2.5-2.1
				c0.4-0.3,0.9-0.5,1.3-0.7c0.1,0.3,0.3,0.7,0.4,1.2c0.7,2.6,0.5,5.3-0.1,7.9c-0.1,0.5-0.3,1.1-0.5,1.6l0,0c-0.8-0.8-1.8-1.5-2.9-2
				l0,0C26.6,16.6,25.2,16.3,23.7,16.4z M23.5,29.6c-0.3,0-0.5,0-0.8-0.1c-0.3,0-0.6,0-0.9,0l4.6-11.6c0.3,0.1,0.6,0.2,0.8,0.3
				l0.7,0.3L23.5,29.6z"/>
		</g>
	</g>
</g>
</svg>
