<?xml version="1.0" encoding="utf-8"?>
<!-- Generator: Adobe Illustrator 21.0.2, SVG Export Plug-In . SVG Version: 6.00 Build 0)  -->
<svg version="1.1" id="Layer_2" xmlns="http://www.w3.org/2000/svg" xmlns:xlink="http://www.w3.org/1999/xlink" x="0px" y="0px"
	 viewBox="0 0 453.5 198.4" style="enable-background:new 0 0 453.5 198.4;" xml:space="preserve">
<style type="text/css">
	.st0{fill:#CCF2FF;}
	.st1{fill:#40A8DF;}
</style>
<g>
	<path class="st0" d="M127.9,28.3h23.2c7.9,0,14.3,6.3,14.3,14.2l0,0c0,7.8-6.4,14.2-14.3,14.2H76.2c-7.9,0-14.3,6.3-14.3,14.2l0,0
		c0,7.8,6.4,14.2,14.3,14.2h35.9c7.9,0,14.3,6.3,14.3,14.2l0,0c0,7.8-6.4,14.2-14.3,14.2H76.2c-7.9,0-14.3,6.3-14.3,14.2l0,0
		c0,7.8,6.4,14.2,14.3,14.2h59c7.9,0,14.3,6.3,14.3,14.2l0,0c0,7.8-6.4,14.2-14.3,14.2h-16.7c-7.9,0-14.3,6.3-14.3,14.2l0,0
		c0,7.8,6.4,14.2,14.3,14.2h243c7.9,0,14.3-6.3,14.3-14.2l0,0c0-7.8-6.4-14.2-14.3-14.2h-32.1c-7.9,0-14.3-6.3-14.3-14.2l0,0
		c0-7.8,6.4-14.2,14.3-14.2h32.1c7.9,0,14.3-6.3,14.3-14.2l0,0c0-7.8-6.4-14.2-14.3-14.2h-56.9c-7.9,0-14.3-6.3-14.3-14.2l0,0
		c0-7.8,6.4-14.2,14.3-14.2h16.9c7.9,0,14.3-6.3,14.3-14.2l0,0c0-7.8-6.4-14.2-14.3-14.2H296c-7.9,0-14.3-6.3-14.3-14.2l0,0
		c0-7.8,6.4-14.2,14.3-14.2h65.6c7.9,0,14.3-6.3,14.3-14.2l0,0c0-7.8-6.4-14.2-14.3-14.2H127.9c-7.9,0-14.3,6.3-14.3,14.2l0,0
		C113.5,22,120,28.3,127.9,28.3z"/>
	<g>
		<g>
			<path class="st1" d="M244.7,123.1c-1.3,0-2.4-0.3-3.4-1.3l-37.3-36.9c-2-2-2-5,0-6.7c2-2,5-2,6.7,0l37.3,36.9c2,2,2,5,0,6.7
				C247.1,122.4,245.7,123.1,244.7,123.1z"/>
		</g>
		<g>
			<path class="st1" d="M207.5,123.1c-1.3,0-2.4-0.3-3.4-1.3c-2-2-2-5,0-6.7l38.6-38.3c2-2,5-2,6.7,0c2,2,2,5,0,6.7l-38.6,38.3
				C209.8,122.4,208.5,123.1,207.5,123.1z"/>
		</g>
	</g>
	<path class="st0" d="M26.2,85.7h0.5c7.9,0,14.3-6.3,14.3-14.2v-0.5c0-7.8-6.4-14.2-14.3-14.2h-0.5c-7.9-0.1-14.3,6.2-14.3,14.1v0.5
		C11.9,79.4,18.3,85.7,26.2,85.7z"/>
	<path class="st0" d="M412.6,127.7v0.5c0,7.8,6.4,14.2,14.3,14.2h0.5c7.9,0,14.3-6.3,14.3-14.2v-0.5c0-7.8-6.4-14.2-14.3-14.2h-0.5
		C419,113.4,412.6,119.8,412.6,127.7z"/>
</g>
</svg>
